#!OML:ASF C:\Vicon Data\Big\jianyuan-11\jianyuan\Session 1\male.ASF
:FULLY-SPECIFIED
:DEGREES
153
root -12.154882 16.146242 -12.254239 -10.247594 -38.180300 11.221247
lowerback -1.455266 5.528448 -2.352903 
upperback 4.592927 7.669993 -1.189282 
thorax 5.432618 3.781556 0.537307 
lowerneck -11.529149 -9.048525 -11.514689 
upperneck 24.134322 -12.483659 11.464278 
head 11.201266 -5.244682 4.410550 
rclavicle 0.000000 0.000000 
rhumerus -37.288570 -23.588743 -80.719883 
rradius 41.641455 
rwrist -3.833432 
rhand -17.745812 0.269771 
rfingers 0.000000 
rthumb 8.515667 -29.538492 
lclavicle 0.000000 0.000000 
lhumerus -82.871793 54.879046 12.285752 
lradius 17.997302 
lwrist -66.441428 
lhand -13.684138 -8.449007 
lfingers 0.000000 
lthumb 12.433644 21.161140 
rfemur 10.992335 -1.534459 22.591124 
rtibia 46.327917 
rfoot 19.245434 2.854044 
rtoes -1.209982 
lfemur -21.797724 -6.733150 -25.218052 
ltibia 29.270855 
lfoot -6.442956 3.992283 
ltoes 20.790860 
154
root -12.219186 16.145939 -12.160957 -10.440634 -38.140688 11.483711
lowerback -1.373228 5.445023 -2.492830 
upperback 4.547828 7.569942 -1.345542 
thorax 5.344346 3.732993 0.436315 
lowerneck -11.523076 -8.999045 -11.477563 
upperneck 24.111113 -12.446970 11.564361 
head 11.190882 -5.214356 4.447856 
rclavicle 0.000000 0.000000 
rhumerus -37.626567 -24.145775 -80.528540 
rradius 41.405165 
rwrist -4.063089 
rhand -17.767673 0.010772 
rfingers 0.000000 
rthumb 8.494552 -29.798371 
lclavicle 0.000000 0.000000 
lhumerus -81.787815 55.047352 13.378400 
lradius 17.951127 
lwrist -66.173186 
lhand -13.660883 -8.457790 
lfingers 0.000000 
lthumb 12.456096 21.151032 
rfemur 9.923817 -2.008075 22.023960 
rtibia 48.347246 
rfoot 19.986986 2.736442 
rtoes -5.532552 
lfemur -21.671666 -6.849064 -25.589063 
ltibia 29.798744 
lfoot -6.096749 3.732441 
ltoes 19.225983 
155
root -12.284449 16.143786 -12.070662 -10.730360 -38.187856 11.613634
lowerback -1.217629 5.408582 -2.616945 
upperback 4.633296 7.530204 -1.368052 
thorax 5.334468 3.711340 0.466829 
lowerneck -11.485629 -9.020919 -11.533614 
upperneck 23.981061 -12.494624 11.678415 
head 11.153977 -5.235411 4.489617 
rclavicle 0.000000 0.000000 
rhumerus -37.914321 -24.694287 -80.255726 
rradius 41.175336 
rwrist -3.993372 
rhand -17.994813 -0.177248 
rfingers 0.000000 
rthumb 8.275359 -29.995125 
lclavicle 0.000000 0.000000 
lhumerus -81.250599 55.441322 13.970684 
lradius 17.969241 
lwrist -66.789593 
lhand -13.828794 -8.593671 
lfingers 0.000000 
lthumb 12.294212 21.024922 
rfemur 9.018051 -2.591506 21.522354 
rtibia 50.361621 
rfoot 20.673365 3.015754 
rtoes -11.254874 
lfemur -21.304842 -6.745650 -25.833679 
ltibia 30.231451 
lfoot -5.948961 3.525952 
ltoes 16.152111 
156
root -12.344244 16.142913 -11.978014 -10.980290 -38.211772 11.622511
lowerback -1.065530 5.319843 -2.603957 
upperback 4.733726 7.409583 -1.307650 
thorax 5.349533 3.651975 0.505553 
lowerneck -11.533184 -8.948315 -11.627193 
upperneck 23.979155 -12.354999 11.614496 
head 11.145004 -5.189264 4.501696 
rclavicle 0.000000 0.000000 
rhumerus -38.156434 -24.879002 -79.919711 
rradius 40.921272 
rwrist -4.269675 
rhand -18.168859 -0.293365 
rfingers 0.000000 
rthumb 8.107398 -30.117812 
lclavicle 0.000000 0.000000 
lhumerus -81.093974 55.870914 14.263926 
lradius 17.933186 
lwrist -67.336220 
lhand -14.064367 -8.577089 
lfingers 0.000000 
lthumb 12.067043 21.055005 
rfemur 8.189600 -2.916449 21.131889 
rtibia 52.314815 
rfoot 21.425735 1.696501 
rtoes -8.820793 
lfemur -20.844639 -6.844995 -25.965587 
ltibia 30.651088 
lfoot -6.358355 3.321430 
ltoes 14.885048 
157
root -12.407057 16.149883 -11.890758 -11.250930 -38.260724 11.977633
lowerback -1.030130 5.312645 -2.875329 
upperback 4.777671 7.420807 -1.402935 
thorax 5.355615 3.650221 0.554194 
lowerneck -11.573605 -8.950710 -11.594771 
upperneck 23.895358 -12.369844 11.647273 
head 11.123671 -5.192262 4.502284 
rclavicle 0.000000 0.000000 
rhumerus -38.428296 -25.292628 -79.662871 
rradius 40.693221 
rwrist -4.333058 
rhand -18.450899 -0.388558 
rfingers 0.000000 
rthumb 7.835142 -30.223359 
lclavicle 0.000000 0.000000 
lhumerus -80.462972 56.333839 14.880898 
lradius 17.831341 
lwrist -67.750325 
lhand -14.164653 -8.598901 
lfingers 0.000000 
lthumb 11.970340 21.038767 
rfemur 7.057935 -3.344027 20.479994 
rtibia 54.258371 
rfoot 22.228238 1.685459 
rtoes -11.535110 
lfemur -20.511174 -7.256090 -26.290198 
ltibia 30.997394 
lfoot -7.250091 3.201127 
ltoes 15.482574 
158
root -12.467173 16.151334 -11.805250 -11.622394 -38.341875 12.311717
lowerback -0.915749 5.284003 -3.152027 
upperback 4.854592 7.398298 -1.432741 
thorax 5.342967 3.630404 0.664445 
lowerneck -11.652475 -8.918837 -11.614562 
upperneck 23.864725 -12.308721 11.614753 
head 11.118074 -5.170797 4.499386 
rclavicle 0.000000 0.000000 
rhumerus -38.680349 -25.596068 -79.392386 
rradius 40.491414 
rwrist -4.451174 
rhand -18.648729 -0.601950 
rfingers 0.000000 
rthumb 7.644218 -30.443798 
lclavicle 0.000000 0.000000 
lhumerus -79.189857 56.649893 16.431731 
lradius 17.835996 
lwrist -67.334077 
lhand -13.906838 -8.832245 
lfingers 0.000000 
lthumb 12.218920 20.790868 
rfemur 6.050611 -3.687763 19.900862 
rtibia 56.133516 
rfoot 22.778413 1.660987 
rtoes -14.479611 
lfemur -20.033494 -7.352971 -26.636255 
ltibia 31.249672 
lfoot -7.836894 2.978073 
ltoes 15.542127 
159
root -12.523663 16.152114 -11.722261 -12.035174 -38.419953 12.724691
lowerback -0.808203 5.272642 -3.491026 
upperback 4.940727 7.402954 -1.470772 
thorax 5.337201 3.621683 0.802379 
lowerneck -11.665724 -8.927704 -11.681564 
upperneck 23.822984 -12.302558 11.596485 
head 11.107765 -5.179111 4.502536 
rclavicle 0.000000 0.000000 
rhumerus -38.969906 -25.815745 -79.115575 
rradius 40.357308 
rwrist -4.619840 
rhand -18.807439 -0.732910 
rfingers 0.000000 
rthumb 7.491020 -30.580222 
lclavicle 0.000000 0.000000 
lhumerus -78.275942 57.034289 17.562640 
lradius 17.846171 
lwrist -67.527647 
lhand -14.084375 -9.145424 
lfingers 0.000000 
lthumb 12.047757 20.487725 
rfemur 5.024054 -4.044072 19.251455 
rtibia 57.958230 
rfoot 23.184709 1.783560 
rtoes -17.639331 
lfemur -19.561544 -7.302821 -27.074904 
ltibia 31.442288 
lfoot -8.156077 2.740180 
ltoes 14.882479 
160
root -12.580782 16.159045 -11.641371 -12.270646 -38.517462 13.077190
lowerback -0.785086 5.265177 -3.736487 
upperback 4.945770 7.408456 -1.553517 
thorax 5.311198 3.617758 0.848212 
lowerneck -11.682793 -8.911445 -11.576312 
upperneck 23.803927 -12.274703 11.488324 
head 11.084180 -5.170224 4.447944 
rclavicle 0.000000 0.000000 
rhumerus -39.324892 -26.045892 -78.886193 
rradius 40.236334 
rwrist -4.607338 
rhand -19.168761 -0.958433 
rfingers 0.000000 
rthumb 7.142254 -30.817845 
lclavicle 0.000000 0.000000 
lhumerus -76.332638 57.132562 19.854920 
lradius 17.875160 
lwrist -67.162052 
lhand -14.347185 -8.856930 
lfingers 0.000000 
lthumb 11.794364 20.790958 
rfemur 3.848519 -4.340066 18.711590 
rtibia 59.720143 
rfoot 23.532383 1.594380 
rtoes -19.316051 
lfemur -19.237519 -7.226811 -27.440753 
ltibia 31.612313 
lfoot -8.416130 2.519107 
ltoes 13.911068 
161
root -12.635050 16.166695 -11.563633 -12.440850 -38.644011 13.367884
lowerback -0.756659 5.220297 -3.910180 
upperback 4.938251 7.357580 -1.614563 
thorax 5.276554 3.588115 0.873895 
lowerneck -11.807957 -8.842378 -11.475978 
upperneck 23.847759 -12.154620 11.329614 
head 11.089343 -5.121218 4.388106 
rclavicle 0.000000 0.000000 
rhumerus -39.581369 -26.194372 -78.667316 
rradius 40.074988 
rwrist -4.750692 
rhand -19.344071 -1.049219 
rfingers 0.000000 
rthumb 6.973055 -30.914376 
lclavicle 0.000000 0.000000 
lhumerus -75.274777 57.416686 21.106831 
lradius 17.852584 
lwrist -67.084979 
lhand -14.511492 -9.173040 
lfingers 0.000000 
lthumb 11.635937 20.483890 
rfemur 2.597067 -4.582941 18.268314 
rtibia 61.467062 
rfoot 23.677766 1.179608 
rtoes -20.015582 
lfemur -18.943246 -7.036459 -27.750510 
ltibia 31.721248 
lfoot -8.619042 2.321959 
ltoes 13.106183 
162
root -12.686588 16.170286 -11.489389 -12.681147 -38.842805 13.712253
lowerback -0.819867 5.211268 -4.206693 
upperback 5.023100 7.366491 -1.590078 
thorax 5.363748 3.576987 1.070574 
lowerneck -11.849430 -8.805136 -11.603522 
upperneck 23.753420 -12.067989 11.318142 
head 11.058576 -5.099915 4.414397 
rclavicle 0.000000 0.000000 
rhumerus -39.676135 -26.341622 -78.375537 
rradius 39.816076 
rwrist -4.756296 
rhand -19.409271 -1.040844 
rfingers 0.000000 
rthumb 6.910092 -30.908080 
lclavicle 0.000000 0.000000 
lhumerus -74.275374 57.857841 22.432984 
lradius 17.885735 
lwrist -66.924458 
lhand -14.632891 -9.177151 
lfingers 0.000000 
lthumb 11.518814 20.486315 
rfemur 1.390309 -4.764230 17.777325 
rtibia 63.194235 
rfoot 23.441126 0.265782 
rtoes -19.201738 
lfemur -18.617834 -6.673559 -28.085478 
ltibia 31.799402 
lfoot -8.815116 2.093082 
ltoes 12.381672 
163
root -12.733501 16.173368 -11.416977 -12.966933 -38.900781 14.220797
lowerback -0.757871 5.174012 -4.533952 
upperback 4.999474 7.334489 -1.722854 
thorax 5.284709 3.554380 1.102003 
lowerneck -11.819392 -8.771124 -11.734442 
upperneck 23.683982 -12.041484 11.518492 
head 11.047041 -5.081065 4.514515 
rclavicle 0.000000 0.000000 
rhumerus -39.937732 -26.571477 -78.161932 
rradius 39.578346 
rwrist -4.567762 
rhand -19.484310 -1.163060 
rfingers 0.000000 
rthumb 6.837606 -31.032689 
lclavicle 0.000000 0.000000 
lhumerus -71.643592 57.732729 25.530841 
lradius 18.037847 
lwrist -65.327237 
lhand -14.447173 -9.120091 
lfingers 0.000000 
lthumb 11.697911 20.533319 
rfemur 0.141304 -5.005648 17.126907 
rtibia 64.917605 
rfoot 22.794986 -1.069028 
rtoes -18.344889 
lfemur -18.328000 -6.511973 -28.580955 
ltibia 31.823745 
lfoot -9.083682 1.959749 
ltoes 11.556213 
164
root -12.783221 16.180422 -11.348690 -13.151378 -39.125966 14.516783
lowerback -0.661661 5.172977 -4.669763 
upperback 4.950142 7.334716 -1.812795 
thorax 5.174167 3.555173 1.070228 
lowerneck -11.732485 -8.696397 -11.873728 
upperneck 23.632750 -11.962149 11.733765 
head 11.025012 -5.037850 4.632932 
rclavicle 0.000000 0.000000 
rhumerus -40.251434 -26.742341 -77.976581 
rradius 39.417602 
rwrist -4.524627 
rhand -19.569424 -1.243693 
rfingers 0.000000 
rthumb 6.755468 -31.115891 
lclavicle 0.000000 0.000000 
lhumerus -69.027514 57.438447 28.621387 
lradius 18.203895 
lwrist -64.085845 
lhand -14.519767 -8.742288 
lfingers 0.000000 
lthumb 11.627892 20.915112 
rfemur -1.108849 -5.102634 16.784812 
rtibia 66.560696 
rfoot 21.925732 -2.041995 
rtoes -18.350546 
lfemur -17.990113 -6.307238 -28.828322 
ltibia 31.801696 
lfoot -9.398906 1.838587 
ltoes 10.914066 
165
root -12.834058 16.189004 -11.279709 -13.445983 -39.312546 14.911635
lowerback -0.704551 5.170533 -4.990194 
upperback 5.045984 7.355658 -1.806173 
thorax 5.261252 3.549741 1.260307 
lowerneck -11.859050 -8.676558 -11.903348 
upperneck 23.634026 -11.890304 11.604920 
head 11.033150 -5.021431 4.596358 
rclavicle 0.000000 0.000000 
rhumerus -40.333443 -26.870237 -77.691193 
rradius 39.210607 
rwrist -4.390851 
rhand -19.464635 -1.224482 
rfingers 0.000000 
rthumb 6.856654 -31.093463 
lclavicle 0.000000 0.000000 
lhumerus -67.500482 57.660636 30.517850 
lradius 18.277804 
lwrist -63.533142 
lhand -14.447279 -8.907995 
lfingers 0.000000 
lthumb 11.697792 20.745431 
rfemur -2.287889 -5.281888 16.302875 
rtibia 68.110322 
rfoot 20.915629 -2.890457 
rtoes -18.359895 
lfemur -17.584543 -6.076746 -29.175749 
ltibia 31.749416 
lfoot -9.676716 1.713928 
ltoes 10.238354 
